HIERARCHY
ROOT hip
{
	OFFSET 0.000000 0.000000 0.000000 
	CHANNELS 6 Xposition Yposition Zposition Xrotation Zrotation Yrotation
	JOINT abdomen
	{
		OFFSET 0.000000 3.402643 0.000000 
		CHANNELS 3 Xrotation Zrotation Yrotation
		JOINT chest
		{
			OFFSET 0.000000 8.438565 -0.680529 
			CHANNELS 3 Xrotation Zrotation Yrotation
			JOINT neck
			{
				OFFSET 0.000000 10.207942 -0.272212 
				CHANNELS 3 Xrotation Zrotation Yrotation
				JOINT head
				{
					OFFSET 0.000000 3.130431 0.000000 
					CHANNELS 3 Xrotation Zrotation Yrotation
					End Site
					{
						OFFSET 0.000000 3.130435 0.000000 
					}
				}
			}
			JOINT lCollar
			{
				OFFSET 3.470700 6.669187 -0.816635 
				CHANNELS 3 Yrotation Zrotation Xrotation
				JOINT lShldr
				{
					OFFSET 3.198488 0.000000 0.000000 
					CHANNELS 3 Zrotation Yrotation Xrotation
					JOINT lForeArm
					{
						OFFSET 10.139888 0.000000 0.000000 
						CHANNELS 3 Yrotation Zrotation Xrotation
						JOINT lHand
						{
							OFFSET 8.370511 0.000000 0.000000 
							CHANNELS 3 Zrotation Yrotation Xrotation
							End Site
							{
								OFFSET 4.083176 0.000000 0.000000 
							}
						}
					}
				}
			}
			JOINT rCollar
			{
				OFFSET -3.470700 6.669187 -0.816635 
				CHANNELS 3 Yrotation Zrotation Xrotation
				JOINT rShldr
				{
					OFFSET -3.198488 0.000000 0.000000 
					CHANNELS 3 Zrotation Yrotation Xrotation
					JOINT rForeArm
					{
						OFFSET -10.139888 0.000000 0.000000 
						CHANNELS 3 Yrotation Zrotation Xrotation
						JOINT rHand
						{
							OFFSET -8.370511 0.000000 0.000000 
							CHANNELS 3 Zrotation Yrotation Xrotation
							End Site
							{
								OFFSET -4.083176 0.000000 0.000000 
							}
						}
					}
				}
			}
		}
	}
	JOINT lThigh
	{
		OFFSET 5.308129 -1.633274 1.361059 
		CHANNELS 3 Xrotation Zrotation Yrotation
		JOINT lShin
		{
			OFFSET -2.041588 -20.007561 0.000000 
			CHANNELS 3 Xrotation Zrotation Yrotation
			JOINT lFoot
			{
				OFFSET 0.000000 -19.190928 -1.224953 
				CHANNELS 3 Xrotation Yrotation Zrotation
				End Site
				{
					OFFSET 0.000000 -2.449906 4.627600 
				}
			}
		}
	}
	JOINT rThigh
	{
		OFFSET -5.308129 -1.633274 1.361059 
		CHANNELS 3 Xrotation Zrotation Yrotation
		JOINT rShin
		{
			OFFSET 2.041588 -20.007561 0.000000 
			CHANNELS 3 Xrotation Zrotation Yrotation
			JOINT rFoot
			{
				OFFSET 0.000000 -19.190928 -1.224953 
				CHANNELS 3 Xrotation Yrotation Zrotation
				End Site
				{
					OFFSET 0.000000 -2.449906 4.627600 
				}
			}
		}
	}
}
MOTION
Frames: 19
Frame Time: 0.016667
2.177789 44.521225 -2.205796 -1.848200 -8.852890 45.743099 -14.793800 4.362590 5.281750 25.343300 -1.411080 3.192190 -8.110470 13.325300 -25.252501 8.184350 10.277400 -10.005700 2.000000 -2.000000 0.000000 -91.792099 -24.681299 -103.162003 86.270103 -0.223743 0.136473 0.071540 -0.098699 -170.584000 -2.000000 2.000000 0.000000 84.071098 11.996200 165.897995 -48.047298 0.306246 0.101680 179.904007 179.893005 1.125220 -20.083681 6.577271 -18.956308 32.435326 2.850964 2.324027 -18.907028 -6.456334 -3.296191 -20.440121 -0.004997 -1.825875 22.865335 -2.876226 -1.783406 -9.662066 -9.737679 -4.329362 
1.804219 44.394943 -2.056880 -2.108690 -9.446840 47.190498 -14.896100 4.463810 5.189920 25.090900 -2.093040 3.163880 -8.583940 12.954000 -25.633301 7.915990 10.252000 -10.251800 2.000000 -2.000000 0.000000 -91.959099 -23.900299 -103.630997 87.490799 -0.220835 0.136631 0.080583 -0.097603 -170.115005 -2.000000 2.000000 0.000000 83.788002 12.485100 165.664001 -48.965302 0.304606 0.103131 179.903000 179.891006 0.373271 -21.625231 7.096705 -19.934784 33.885204 2.792696 2.422117 -19.477110 -6.726640 -3.441777 -21.572981 0.318293 -3.605014 24.302591 -2.749210 -1.923648 -9.345480 -9.732847 -4.304169 
1.454758 44.249489 -1.866647 -2.436700 -9.630120 48.649200 -14.788600 4.683910 4.724190 24.953899 -2.025280 2.978810 -8.848490 12.497800 -25.639799 7.686430 10.157600 -10.327200 2.000000 -2.000000 0.000000 -92.051498 -22.651501 -105.581001 88.027901 -0.219554 0.136681 0.079018 -0.095163 -169.080002 -2.000000 2.000000 0.000000 83.104797 13.334900 165.578003 -49.268002 0.304060 0.103604 179.901001 179.878998 -0.691177 -22.623491 7.331905 -20.735104 35.226231 2.731376 2.510087 -20.394352 -6.416977 -3.427558 -22.542368 0.259596 -5.634093 26.312714 -2.660906 -2.088796 -9.629859 -9.428917 -4.317955 
1.105301 44.104046 -1.676391 -2.765010 -9.803250 50.109600 -14.680200 4.904290 4.259890 24.816900 -1.947730 2.794140 -9.112180 12.051200 -25.651100 7.447090 10.063200 -10.415100 2.000000 -2.000000 0.000000 -92.192703 -21.412600 -107.525002 88.565002 -0.218273 0.136719 0.077497 -0.092696 -168.044998 -2.000000 2.000000 0.000000 82.411903 14.184700 165.473007 -49.561001 0.303529 0.104059 179.899002 179.876999 -1.755630 -23.661825 7.540260 -21.554529 36.527386 2.668505 2.596012 -21.194736 -6.098952 -3.405657 -23.503719 0.173295 -7.674078 28.338589 -2.574301 -2.240438 -9.953030 -9.109767 -4.292725 
0.782807 43.912170 -1.449108 -2.582640 -9.277840 51.040901 -14.396400 4.980170 3.995590 24.815701 -1.392630 2.679300 -9.199450 12.549300 -25.754299 7.489920 10.306400 -10.403500 2.000000 -2.000000 0.000000 -92.237297 -20.359800 -109.962997 88.125504 -0.219321 0.136689 0.077215 -0.092227 -167.848999 -2.000000 2.000000 0.000000 81.796700 15.006800 164.712997 -49.658699 0.303351 0.104210 179.899002 179.876999 -1.775160 -24.100172 7.240087 -21.301758 37.622570 2.595569 2.670796 -22.041061 -5.381761 -3.168334 -24.278120 -0.632866 -8.954648 30.555496 -2.517104 -2.392680 -10.810204 -8.979035 -4.375935 
0.460303 43.720295 -1.221814 -2.391200 -8.762010 51.984299 -14.112100 5.069240 3.739700 24.814899 -0.837526 2.564460 -9.287300 13.056500 -25.870199 7.533020 10.559300 -10.399100 2.000000 -2.000000 0.000000 -92.340401 -19.316999 -112.396004 87.695801 -0.220346 0.136652 0.076935 -0.091757 -167.654007 -2.000000 2.000000 0.000000 81.161903 15.819100 163.934006 -49.746601 0.303191 0.104345 179.899002 179.876999 -1.784920 -24.546717 6.915630 -21.043196 38.795536 2.527220 2.753583 -22.980583 -4.647344 -2.957103 -25.111975 -1.458949 -10.233632 32.849442 -2.449416 -2.537820 -11.685532 -8.859226 -4.455863 
0.177524 43.522636 -0.965806 -2.485320 -8.029650 52.983398 -13.820200 5.016900 3.660880 24.775600 -0.516176 2.510670 -9.749070 13.162400 -26.179600 7.315870 10.669400 -10.559300 2.000000 -2.000000 0.000000 -91.741096 -18.440800 -115.216003 86.621597 -0.222906 0.136525 0.075584 -0.079677 -166.697006 -2.000000 2.000000 0.000000 81.072998 15.822500 162.440002 -50.410599 0.301976 0.105362 179.897003 179.875000 -2.654060 -24.628180 6.888208 -20.253344 40.369370 2.463281 2.848184 -23.773767 -2.003625 -1.760889 -25.105196 -2.165074 -11.420306 34.450710 -2.437343 -2.640848 -12.549626 -8.775987 -4.497922 
-0.105245 43.324982 -0.709812 -2.569660 -7.297420 53.998299 -13.538200 4.973780 3.579060 24.736401 -0.204533 2.465490 -10.200400 13.267000 -26.497601 7.098700 10.789000 -10.721700 2.000000 -2.000000 0.000000 -91.190399 -17.545300 -118.000000 85.547401 -0.225463 0.136350 0.074286 -0.077364 -165.750000 -2.000000 2.000000 0.000000 80.974098 15.825900 160.936005 -51.074699 0.300749 0.106365 179.895004 179.873993 -3.513430 -24.647600 6.872498 -19.477030 41.982800 2.390997 2.956196 -24.703514 0.637438 -0.552358 -25.018982 -2.861070 -12.615396 35.995220 -2.382998 -2.731174 -13.398130 -8.701758 -4.561992 
-0.315942 43.139664 -0.499796 -2.931920 -6.983130 54.917000 -13.339400 4.950730 3.328380 24.814501 -0.136341 2.333580 -10.658800 13.184700 -26.609600 6.910860 10.879000 -10.771700 2.000000 -2.000000 0.000000 -89.919098 -16.592899 -121.864998 86.123596 -0.224092 0.136450 0.074977 -0.078606 -166.257996 -2.000000 2.000000 0.000000 80.621201 15.330600 159.742996 -52.236801 0.298574 0.108085 179.893997 179.871994 -4.284910 -24.803177 7.623476 -18.192783 43.870228 2.302427 3.058962 -25.116278 2.857440 0.589878 -25.155975 -3.012964 -13.602849 37.519100 -2.328134 -2.810240 -14.307738 -8.821431 -4.704246 
-0.526630 42.954338 -0.289780 -3.293860 -6.678500 55.851898 -13.150200 4.924160 3.067600 24.882799 -0.068165 2.211630 -11.106900 13.102000 -26.717400 6.713070 10.978700 -10.823600 2.000000 -2.000000 0.000000 -88.715698 -15.562800 -125.692001 86.699699 -0.222720 0.136536 0.075693 -0.079867 -166.774994 -2.000000 2.000000 0.000000 80.278099 14.815700 158.550995 -53.389198 0.296384 0.109747 179.891998 179.871002 -5.056410 -24.997421 8.355884 -16.916395 45.864712 2.212501 3.164278 -25.646967 5.084930 1.767572 -25.208494 -3.138211 -14.589293 38.888485 -2.252314 -2.922856 -15.151948 -8.894241 -4.837667 
-0.671135 42.757595 -0.141036 -3.291310 -6.288520 56.640202 -13.088300 4.685670 3.066950 24.951200 -0.243423 2.168750 -11.400100 12.955000 -26.900801 6.583970 10.999600 -10.915300 2.000000 -2.000000 0.000000 -86.544800 -14.328100 -129.490005 89.522003 -0.215990 0.136757 0.077313 -0.092391 -167.917999 -2.000000 2.000000 0.000000 79.983704 13.508700 157.815002 -55.254398 0.292769 0.112343 179.886002 179.875000 -8.074000 -24.979494 8.691060 -15.857846 47.770939 2.119254 3.275898 -25.511755 6.302643 2.385151 -25.497892 -3.665039 -15.262877 40.351341 -2.214301 -2.994950 -15.952830 -9.105876 -5.001859 
-0.815635 42.560829 0.007700 -3.288920 -5.898540 57.427399 -13.016900 4.456700 3.064970 25.019699 -0.428385 2.134460 -11.693500 12.798600 -27.071199 6.444800 11.010800 -11.020900 2.000000 -2.000000 0.000000 -84.471100 -12.947200 -133.212997 92.363899 -0.208808 0.156167 0.078974 -0.095094 -169.050995 -2.000000 2.000000 0.000000 79.708900 12.191900 157.080002 -57.109901 0.289091 0.114807 -0.120950 0.139861 168.899002 -24.986704 9.031409 -14.800356 49.774059 2.014531 3.365568 -25.452724 7.502978 3.017568 -25.700602 -4.194655 -15.901024 41.689098 -2.138872 -3.074781 -16.696161 -9.283749 -5.178318 
-0.904657 42.414867 0.123803 -3.612450 -5.828320 58.169102 -13.104100 4.372680 3.059660 25.049101 -0.603609 2.120440 -11.959800 13.001000 -27.234600 6.356940 11.177600 -11.070200 2.000000 -2.000000 0.000000 -82.455803 -11.977100 -137.011002 95.303299 -0.201310 0.155664 0.073215 -0.091399 -171.647995 -2.000000 2.000000 0.000000 78.992798 10.830500 154.457001 -58.213402 0.286866 0.116216 -0.116787 0.126987 170.753998 -24.784241 9.979961 -14.058601 51.453205 1.932643 3.459689 -25.161306 8.549212 3.546340 -25.718580 -4.081039 -16.411650 42.417072 -2.093987 -3.119687 -17.198170 -9.625904 -5.370836 
-0.993677 42.268898 0.239909 -3.945720 -5.757900 58.912102 -13.181600 4.298330 3.052870 25.088301 -0.788543 2.115110 -12.227500 13.203000 -27.392401 6.278950 11.344200 -11.127800 2.000000 -2.000000 0.000000 -80.527802 -10.880300 -140.770996 98.252502 -0.193824 0.154773 -179.923004 -179.903000 5.754110 -2.000000 2.000000 0.000000 78.344803 9.429740 151.856995 -59.316898 0.284614 0.117582 179.886993 179.867004 -7.380620 -24.594324 10.923836 -13.273726 53.247097 1.868773 3.516904 -24.952993 9.618285 4.059441 -25.758898 -3.963656 -16.903656 43.145481 -2.043648 -3.171242 -17.690845 -9.965232 -5.563067 
-1.038979 42.221703 0.300498 -4.169710 -5.512800 59.687500 -13.115800 4.334900 2.957830 25.312700 -0.515796 2.076140 -11.763400 13.263000 -27.214500 6.437180 11.235300 -11.050700 2.000000 -2.000000 0.000000 -79.391098 -10.614600 -144.813995 100.079002 -0.189214 0.154029 -179.917999 -179.897003 2.941600 -2.000000 2.000000 0.000000 77.364502 8.576400 148.945007 -59.844299 0.283529 0.118219 179.891998 179.869995 -5.202900 -23.901155 11.766264 -12.454393 54.218010 1.831983 3.559240 -24.769409 10.454835 4.474362 -25.537523 -4.034377 -17.175766 43.626015 -2.035999 -3.195787 -18.054451 -10.242612 -5.697546 
-1.084280 42.174511 0.361083 -4.403260 -5.248220 60.451599 -13.050100 4.358550 2.856740 25.546900 -0.252944 2.048180 -11.288200 13.322200 -27.042601 6.605250 11.126200 -10.984100 2.000000 -2.000000 0.000000 -78.273201 -10.271100 -148.835999 101.904999 -0.184631 0.153138 -179.912003 -179.880997 0.129133 -2.000000 2.000000 0.000000 76.442497 7.674020 146.050995 -60.371601 0.282438 0.118846 179.895996 179.875000 -3.015390 -23.178406 12.611472 -11.632512 55.189823 1.784196 3.614454 -24.607567 11.295722 4.891500 -25.266203 -4.093669 -17.478123 43.989017 -2.025195 -3.212177 -18.363523 -10.517507 -5.871778 
-1.094533 42.201641 0.333540 -4.588800 -5.139810 61.094799 -13.151700 4.396060 3.121150 25.673901 -0.184807 2.180680 -10.656200 13.325000 -27.216400 6.792310 10.948600 -11.132400 2.000000 -2.000000 0.000000 -77.320000 -10.316600 -151.970993 102.735001 -0.182558 0.152685 -179.908005 -179.876007 -2.361110 -2.000000 2.000000 0.000000 75.822701 6.644860 142.962997 -61.367699 0.280362 0.120003 179.895996 179.873993 -3.318120 -22.386356 13.502993 -10.616186 55.559792 1.815104 3.609544 -24.144358 11.943125 5.071187 -24.985895 -4.094008 -17.644552 43.889820 -2.045738 -3.202866 -18.436050 -10.868959 -6.017181 
-1.104784 42.228645 0.306005 -4.784030 -5.021600 61.737301 -13.253300 4.439660 3.373640 25.791000 -0.116699 2.313510 -10.024000 13.325800 -27.388100 6.979180 10.770900 -11.281800 2.000000 -2.000000 0.000000 -76.376099 -10.313500 -155.095993 103.555000 -0.180516 0.152208 -179.901993 -179.880997 -4.841590 -2.000000 2.000000 0.000000 75.261299 5.586110 139.903000 -62.354000 0.278287 0.121113 179.895004 179.873001 -3.611090 -21.541264 14.388022 -9.570865 55.792969 1.832201 3.592235 -23.586533 12.598200 5.280779 -24.704288 -4.103177 -17.800013 43.811680 -2.034703 -3.190857 -18.520473 -11.210814 -6.171756 
-1.087534 42.346062 0.187806 -4.960710 -5.049470 62.419300 -13.480900 4.357110 3.231870 25.810600 -0.106971 2.246000 -9.535800 13.484400 -27.306601 7.097980 10.730500 -11.281500 2.000000 -2.000000 0.000000 -75.910400 -10.018100 -158.434998 103.848000 -0.179788 0.152031 -179.897995 -179.876999 -6.716600 -2.000000 2.000000 0.000000 74.818100 4.994530 137.606995 -63.564999 0.275713 0.122427 179.893997 179.873001 -3.972410 -20.686161 15.169213 -8.724840 55.319965 1.891707 3.558049 -22.526794 12.789024 5.112748 -24.324820 -3.894943 -17.559244 43.033821 -2.103072 -3.147595 -18.472492 -11.820317 -6.408734 
